<?xml version="1.0" encoding="UTF-8"?>
<svg id="Capa_1" data-name="Capa 1" xmlns="http://www.w3.org/2000/svg" viewBox="0 0 1080 1080">
  <defs>
    <style>
      .cls-1 {
        fill: #fff;
      }
    </style>
  </defs>
  <g>
    <path class="cls-1" d="M709.87,635.66c11.36,4.62,22.83,6.1,34.99,6.26v22.59c-14.47.02-28.43-1.74-41.92-6.67-29.79-10.92-47.5-35.3-52.28-66.39-5.6-36.49,1.77-72.1,30.25-96.9,11.61-10.11,25.38-16.56,40.6-19.56,18.1-3.57,36.52-3.33,54.57.51,31.04,6.61,57.01,27.78,65.51,58.71,2.51,8.97,3.63,17.77,3.62,27.09l-.02,16.48-171.66.34c1.8,25.5,11.87,47.36,36.32,57.54ZM817.92,555.53c-1.75-27.71-19.68-49.98-45.95-57.16-15.92-4.35-32.4-4.26-48.4-.38-27.95,7.84-45.34,28.19-49.24,57.52l143.59.02Z"/>
    <path class="cls-1" d="M933.74,501.49c-28.95,6.34-45.77,31.3-45.37,60.46l.03,102.73h-24.94s0-183.88,0-183.88l24.9-.02.31,19.03c10.55-10.28,22.71-16.83,36.76-20.07,17.82-4.11,36.32-4.1,54.21-.23,11.62,2.52,21.96,7.31,31.25,14.37,14.06,10.68,21.63,26.3,22.49,44.1l.09,126.65-24.94.06-.05-123.36c-.96-10.16-3.79-19.22-10.71-26.48-15.27-16.01-42.78-18.01-64.02-13.36Z"/>
  </g>
  <path class="cls-1" d="M1083.71,461.72c0,13.06-10.59,23.65-23.65,23.65s-23.65-10.59-23.65-23.65,10.59-23.65,23.65-23.65,23.65,10.59,23.65,23.65ZM1072.77,475.03c7.33-7,7.62-18.6.65-25.96-6.97-7.35-18.58-7.69-25.96-.74s-7.76,18.55-.84,25.95c6.92,7.4,18.52,7.82,25.95.93l-.65-.75-4.02-.15c-4.72-7.06-6.01-12.92-14.42-10.8l-.06,10.98-3.53.04v-25.5s13.39.01,13.39.01c3.96,0,6.68,2.58,7.03,6.21.36,3.8-2.04,6.84-6.25,7.59l3.73,4.31,4.45,7.27c.14.22.31.46.53.61ZM1063.16,459.96c2.51-.06,3.7-2.45,3.52-4.37-.15-1.66-1.47-3.47-3.49-3.47l-9.65-.03c-.17,2.84-.34,5.35.11,8.08l9.51-.21Z"/>
  <g>
    <path class="cls-1" d="M453.2,660.39c-21.19,5.54-43.3,5.54-64.27.7-33.26-7.68-58.67-33.32-66.12-66.58-3.72-16.62-3.78-33.83-.22-50.49,7.28-34.04,33.43-60.3,67.33-68.14,19.74-4.57,40.33-4.58,60.08-.22,34.76,7.68,61.17,34.67,68.16,69.55,2.91,14.51,3.03,29.27.55,43.92-5.87,34.66-31.22,62.28-65.51,71.26ZM443.97,639.05c24.45-5.99,42.93-24.5,48.93-48.73,3.98-16.08,3.56-33.06-1.43-48.82-7.03-22.21-24.65-38.22-47.21-43.56-15.5-3.67-31.34-3.75-46.91-.3-23.64,5.24-42.09,22.45-48.88,45.75-4.66,15.99-4.84,32.96-.38,49.04,6.46,23.27,24.58,40.89,48.01,46.61,15.73,3.84,31.76,3.95,47.86,0Z"/>
    <polygon class="cls-1" points="280.2 664.73 255.97 664.75 255.29 452.2 217.72 452.18 217.71 429.17 318.18 429.17 318.15 452.16 280.19 452.21 280.2 664.73"/>
    <path class="cls-1" d="M566.04,586.73v78.09s-24.95.03-24.95.03v-183.87s24.91-.06,24.91-.06l.29,24.62c10.19-10.68,21.94-17.86,35.64-22.39,14.28-4.71,28.89-6.31,44.17-6.32l.02,22.67c-11.9-.06-23.62,1.39-34.99,5.48-11.94,4.43-22.05,11.79-29.07,22.41-11.37,17.2-15.45,38.24-16.01,59.33Z"/>
  </g>
  <g>
    <rect class="cls-1" x="63.88" y="320.15" width="20.91" height="344.25"/>
    <rect class="cls-1" x="97.92" y="388.07" width="20.91" height="276.38"/>
    <rect class="cls-1" x="-97.62" y="515.73" width="276.4" height="20.96" transform="translate(-485.64 566.78) rotate(-90)"/>
    <rect class="cls-1" x="-93.88" y="553.42" width="201.19" height="20.86" transform="translate(-557.13 570.55) rotate(-90)"/>
    <rect class="cls-1" x="39.26" y="553.42" width="201.19" height="20.9" transform="translate(-424.03 703.66) rotate(-89.99)"/>
  </g>
  <g>
    <polygon class="cls-1" points="627.42 709.33 609.01 738.76 608.94 758.46 602.23 758.38 602.18 738.73 583.63 709.19 591.55 709.19 605.57 732.79 619.56 709.32 627.42 709.33"/>
    <g>
      <polygon class="cls-1" points="467.54 758.24 460.13 758.37 435.15 719.08 434.89 758.46 428.38 758.47 428.37 709.23 436.61 709.34 460.81 748.24 461.07 709.24 467.53 709.22 467.54 758.24"/>
      <path class="cls-1" d="M328.92,759.8c-10.6.21-19.4-5.48-22.82-15.3-2.27-6.51-2.32-13.76-.35-20.36,3.11-10.38,12.23-16.54,22.87-16.41,9.84.12,18.27,5.34,21.81,14.78,2.6,6.94,2.64,14.97.2,22-3.28,9.44-11.57,15.09-21.71,15.28ZM344.14,742.04c1.83-5.73,1.7-11.86-.27-17.26-2.59-7.1-8.84-11.22-16.05-11-6.83.21-12.75,4.48-15.1,11.44-1.79,5.3-1.83,11.24-.2,16.58,2.29,7.45,8.5,11.98,15.83,11.97,7.14-.01,13.38-4.2,15.79-11.72Z"/>
      <path class="cls-1" d="M560.74,744.28c.18,6.25-2.93,11.57-9.14,13.82-6.19,2.25-13.5,2.25-19.79.03-6.72-2.38-10.6-8.31-10.3-15.47h6.23c.04,4.65,2.62,8.38,7.01,9.92,4.6,1.61,9.94,1.56,14.53,0,3.44-1.17,5.1-4.25,5.04-7.42-.07-3.68-2.57-5.87-6.27-6.84l-15.9-4.13c-2.71-.7-5.87-2.2-7.27-4.78-4.47-8.19.11-18.29,9.07-20.66,5.08-1.34,10.27-1.37,15.19.31,6.36,2.17,10.41,7.77,10.29,14.41l-6.12.04c-.31-4.17-2.88-7.72-7.07-8.93-3.78-1.1-7.75-1.07-11.5.23-4.34,1.5-6.56,6.58-4.19,10.54.94,1.57,2.95,2.3,4.64,2.73l16.26,4.21c5.89,1.52,9.11,6.03,9.28,11.99Z"/>
      <path class="cls-1" d="M277.16,753.72c8.73.22,13.76-5.15,15.21-13.5l6.57-.09c-.99,11.69-9.72,19.58-21.08,19.69-9.31.09-17.31-4.95-20.55-13.98-2.66-7.43-2.75-15.89-.17-23.41,3.12-9.11,11.21-14.65,20.69-14.64,11.26,0,19.27,5.26,20.69,16.18l-6.51.05c-.94-5.94-5.6-9.43-11.35-10.12-7.64-.91-14.27,2.98-16.84,10.44-2.2,6.39-2.1,13.74.21,20.17,2.05,5.7,7.02,9.05,13.12,9.2Z"/>
      <path class="cls-1" d="M379.35,753.72c8.87.45,14.1-5.13,15.56-13.54h6.55c-1.11,12.06-10.3,20.05-22.11,19.63-8.74-.31-16.11-5.01-19.36-13.52-2.86-7.5-2.95-16.32-.32-23.94,3.49-10.11,12.73-15.2,23.03-14.58,9.3.56,17.3,6.18,18.37,16.13l-6.56.12c-.86-5.66-5.16-9.14-10.66-10.03-7.59-1.23-14.54,2.43-17.32,9.84-2.43,6.47-2.3,13.82-.09,20.41,1.92,5.73,6.81,9.16,12.91,9.48Z"/>
      <path class="cls-1" d="M505.21,744.17l-19.4-.05-5.26,14.32-6.99-.07,18.51-49.14,7.8.04,17.69,49.12-7.35.04-5.01-14.28ZM503,737.83l-7.38-20.76-7.71,21.07,15.09-.31Z"/>
      <rect class="cls-1" x="410.41" y="709.15" width="6.76" height="49.45"/>
    </g>
    <g>
      <path class="cls-1" d="M788.61,747.8c-1.57,6.23-7.25,10.26-13.66,10.35l-23.79.31v-49.25s23.79.14,23.79.14c5.74.03,10.61,3.97,11.63,9.02,1.12,5.56-1.2,10.83-6.35,13.47,7.22,2.46,10.19,8.79,8.38,15.96ZM779.94,721.94c.35-3.7-2.45-6.39-6.19-6.74l-15.87-.2v15s14.75-.15,14.75-.15c4.48-.05,7.78-3.39,7.31-7.9ZM782.35,743.97c.12-4.57-2.61-7.99-7.03-8.07l-17.42-.31.02,16.9,15.9-.05c5.03-.02,8.39-3.31,8.53-8.47Z"/>
      <path class="cls-1" d="M903.31,758.34l-8.65.06-1.09-14.11c-.18-4.36-3.25-7.08-7.56-7.08h-17.08s0,21.14,0,21.14l-6.73.02v-49.19s24.94.09,24.94.09c4.1.01,7.93,1.34,10.79,4.1,5.06,6.08,4.15,16.56-3.08,20.79,3.76,2.09,5.23,5.19,5.4,8.98l.53,11.84c.6,1.17,1.89,1.31,2.52,3.35ZM894.17,723.39c.16-5.3-3.09-8.47-8.21-8.45l-17.03.04.03,16.31,18.13-.06c4.48-.01,6.93-3.4,7.07-7.84Z"/>
      <polygon class="cls-1" points="850.02 736.05 823.27 736.07 823.27 752.39 852.82 752.39 852.81 758.4 816.49 758.36 816.49 709.21 852.48 709.22 852.54 715.09 823.26 715.16 823.27 730.02 849.97 730.03 850.02 736.05"/>
      <path class="cls-1" d="M1026.58,757.94c-6.55,2.57-13.97,2.42-20.4.08-6.72-2.44-10.56-8.71-9.97-15.43l6.16.11c0,5.04,3.18,8.92,7.94,10.22,6.55,1.79,16.31.91,18.08-4.59.86-2.67.71-5.8-1.37-7.75-1.6-1.5-3.76-2.16-5.82-2.68l-14.24-3.61c-2.85-.72-5.79-2.19-7.43-4.8-2.38-3.81-2.21-8.81-.24-13.19,3.71-8.24,15.41-10.13,24.21-7.32,6.59,2.11,10.69,7.96,10.59,14.53l-6.2-.06c-.31-4.4-3.06-7.83-7.33-8.97-5.68-1.52-13.57-.58-15.55,4.18-.97,2.33-1.31,5.18.5,7.14,1.65,1.79,4.32,2.35,6.65,2.95l14.48,3.76c5.61,1.46,8.53,6.07,8.72,11.79.2,5.97-2.67,11.24-8.77,13.64Z"/>
      <path class="cls-1" d="M672.19,753.73c8.67.21,13.76-5.31,15.11-13.54h6.58c-1.01,11.13-9.01,18.99-19.84,19.62-10.28.59-19.12-5.05-22.21-15.09-3.85-12.52-1.24-29.02,11.21-34.74,6.41-2.95,13.94-2.96,20.32-.17,5.93,2.59,9.49,8.07,10.13,14.16l-6.58.03c-.8-5.44-4.92-8.91-10.18-9.9-8.12-1.53-15.52,2.55-18.1,10.59-2.01,6.26-1.91,13.28.21,19.52s7.02,9.38,13.34,9.53Z"/>
      <path class="cls-1" d="M734.11,709.31l6.72-.05-.2,33.82c-.05,8.31-6.07,14.85-14.04,16.21-3.7.63-7.15.58-10.81-.05-7.76-1.32-13.46-7.53-13.51-15.63l-.24-34.37h6.73s.23,33.23.23,33.23c.05,7.27,5.77,11.33,12.44,11.34,6.71,0,12.42-4.05,12.46-11.33l.22-33.17Z"/>
      <path class="cls-1" d="M979.89,744.23l-19.42-.16-5.34,14.39-7.02-.05,18.53-49.08,7.8-.13,17.68,49.16-7.3.11-4.93-14.23ZM977.71,738.15l-7.45-20.85-7.7,20.81,15.15.04Z"/>
      <polygon class="cls-1" points="929.86 758.39 923.14 758.45 923.15 715.18 906.48 715.13 906.47 709.21 946.47 709.22 946.48 715.14 929.86 715.19 929.86 758.39"/>
      <rect class="cls-1" x="797.59" y="709.16" width="6.98" height="49.34"/>
    </g>
  </g>
</svg>