<?xml version="1.0" encoding="UTF-8"?>
<svg id="Capa_1" data-name="Capa 1" xmlns="http://www.w3.org/2000/svg" viewBox="0 0 1080 1080">
  <defs>
    <style>
      .cls-1 {
        fill: #fff;
      }
    </style>
  </defs>
  <g id="lTHVsb">
    <g>
      <path class="cls-1" d="M671.73,879.95l-9.74-.02-42.47-62.05-.24,61.46c-2.1.42-5.28.63-8.1.6l.04-74.48,10,.48,42.17,61.03.41-61.22,7.89-.3.04,74.51Z"/>
      <path class="cls-1" d="M353.56,842.85c0,21.45-17.39,38.84-38.84,38.84s-38.84-17.39-38.84-38.84,17.39-38.84,38.84-38.84,38.84,17.39,38.84,38.84ZM345.67,842.76c0-17.12-13.87-30.99-30.99-30.99s-30.99,13.87-30.99,30.99,13.87,30.99,30.99,30.99,30.99-13.87,30.99-30.99Z"/>
      <path class="cls-1" d="M783.52,860.21l-37.8.08-7.96,19.59-9-.06,31.71-73.37c2.47-1,6.62-.99,9.02.01l31.49,73.38-8.96.11-8.49-19.74ZM780.65,853.16l-15.82-38.14-16.09,38.06,31.91.08Z"/>
      <path class="cls-1" d="M426.48,862.7c5.73,7.85,14.21,11.28,22.34,11.52,9.07.27,16.78-2.85,22.64-10.93l6.22,4.39c-11.72,17.7-38.16,18.05-53.64,4.31-8.52-7.57-12.96-19-12.46-31.43.77-19.3,14.25-34.31,33.51-36.22,11.53-1.14,22.45,1.36,30.67,10.97l-6.16,5.39c-6.62-7.87-14.36-10.25-24.27-9.22-8.12.85-16.25,5.73-20.97,14.3-6.22,11.29-5.87,25.99,2.1,36.91Z"/>
      <path class="cls-1" d="M195.59,874.17c8.67-.48,14.66-3.63,19.19-10.76l6.93,4.19c-5.44,8.48-13.97,12.99-24.03,13.88-22.92,2.03-40.99-14.42-42.04-37.15-1.09-23.67,17.48-41.93,41.17-40.04,8.95.71,16.66,3.35,23.24,11.25l-6.4,4.98c-10.8-13.07-30.82-12.18-41.84.66-8.04,9.36-9.52,22.34-5.42,33.84,4.31,12.09,15.61,19.9,29.19,19.15Z"/>
      <path class="cls-1" d="M882.5,881.04c-11.61,1.9-22.62-1.38-29.54-10.58l6.85-5.61c4.23,7.82,13.17,10.94,22.12,8.8,6.29-1.5,10.45-6.34,10.82-12.15.96-15.29-18.72-12.94-32-22.52-6.21-4.48-7.12-12.51-5.58-19.46,1.45-6.55,7.29-12.15,14.63-14.08,10.93-2.87,22.22-1.35,30.06,7.52l-6.29,5.47c-5.46-6.94-13.13-8.25-20.97-6.32-6.04,1.49-9.87,6.77-9.83,12.47.11,13.92,19.22,11.48,31.99,20.99,6.82,5.08,7.41,14.19,5.01,21.81-2.16,6.85-8.46,12.23-17.26,13.67Z"/>
      <rect class="cls-1" x="536.8" y="805.45" width="8.39" height="74.82" transform="translate(-.96 .62)"/>
      <g>
        <polygon class="cls-1" points="375.71 728.04 357.28 728.02 324.68 673.83 288.25 612.17 288.46 727.91 267.72 727.94 267.71 573.83 287.63 573.81 354.98 687.02 354.52 573.92 375.71 573.85 375.71 728.04"/>
        <polygon class="cls-1" points="537.53 656.67 486.77 656.68 486.73 708.99 551.72 708.9 551.75 727.95 465 728.02 464.96 573.94 549.6 573.93 549.49 593.09 486.7 593.1 486.8 637.65 537.33 637.67 537.53 656.67"/>
        <polygon class="cls-1" points="893.89 727.99 786.76 727.92 865.47 593.22 796.25 593.08 796.14 573.95 900.09 573.9 821.18 708.78 893.8 709 893.89 727.99"/>
        <polygon class="cls-1" points="721.03 727.99 613.99 727.91 692.79 593.24 623.25 593.05 623.25 573.91 727.45 573.96 648.41 708.89 720.93 708.88 721.03 727.99"/>
        <path class="cls-1" d="M1057.4,727.87l-40.41-130.18-40.13,130.23-22.44.1,50.9-154.34c8.66-.73,15.52-.64,23.99.31l50.68,153.86-22.6.03Z"/>
        <polygon class="cls-1" points="72.41 638.51 72.33 657.78 22.01 657.81 22 728.1 .01 728.1 0 573.92 81 573.93 81.01 593.09 22.01 593.11 21.97 638.49 72.41 638.51"/>
        <rect class="cls-1" x="155.96" y="573.86" width="21.8" height="154.24"/>
      </g>
      <g>
        <polygon class="cls-1" points="397.1 301.53 551.61 301.54 551.67 198.9 577.58 198.59 577.56 327.85 397.2 327.86 397.1 301.53"/>
        <polygon class="cls-1" points="525.83 379.18 525.86 482.06 499.9 481.98 499.84 352.93 680.38 353.01 680.28 379.15 525.83 379.18"/>
        <rect class="cls-1" x="551.74" y="404.53" width="128.68" height="26.36"/>
        <rect class="cls-1" x="448.69" y="146.71" width="26.41" height="129.63" transform="translate(250.26 673.36) rotate(-89.99)"/>
        <rect class="cls-1" x="654.59" y="198.59" width="25.93" height="129.44"/>
        <rect class="cls-1" x="396.76" y="404.51" width="129.26" height="26.01" transform="translate(43.82 878.85) rotate(-89.99)"/>
        <rect class="cls-1" x="551.71" y="456.03" width="128.73" height="26.11"/>
        <rect class="cls-1" x="397.04" y="249.86" width="129.69" height="26.33"/>
        <rect class="cls-1" x="603.13" y="198.61" width="26.14" height="129.37"/>
        <rect class="cls-1" x="396.92" y="352.89" width="26.31" height="129.25"/>
      </g>
    </g>
  </g>
</svg>