<?xml version="1.0" encoding="UTF-8"?>
<svg id="Capa_1" data-name="Capa 1" xmlns="http://www.w3.org/2000/svg" viewBox="0 0 1080 1080">
  <defs>
    <style>
      .cls-1 {
        fill: #fff;
      }
    </style>
  </defs>
  <g>
    <path class="cls-1" d="M807.59,587.23c-.65-1.37-.48-3.24-.2-4.61,4.31.22,8.06.69,12.71-1.06l.11-82.79c-4.17-1.81-7.89-1.38-12.51-1.04-.76-1.66-.55-3.34-.36-4.92l51.44.4c13.99.11,25.93,10.1,31.9,22.85,8.46,18.06,6.38,40.25-5.42,55.86-8.18,10.82-19.41,15.43-32.56,15.41l-45.11-.09ZM878.16,516.76c-2.14-7.34-7.56-15.19-15.17-17.54-9.59-2.97-19.93-1.77-30.19-1.04l.02,83.99,21.01.58c27,.75,31.87-40.1,24.33-65.99Z"/>
    <path class="cls-1" d="M1073.8,577.27c-5.09,7.43-11.88,11.09-19.39,11.34-8.33.28-15.51-3.23-20.8-10.33-9.47-12.7-9.32-30.5.3-43.04,5.12-6.67,11.69-9.98,19.43-9.95,7.91.03,14.87,3.46,20,10.54,8.61,11.87,8.98,28.98.46,41.44ZM1064.07,578.66c3.74-6.94,3.76-14.14,3.82-21.48.12-14.58-2.63-29.57-15.53-28.42-4.44.4-9.18,3.48-10.8,8.76-5.02,16.35-4.48,45.45,9.65,47.55,5.15.77,10.19-1.46,12.86-6.42Z"/>
    <path class="cls-1" d="M937.08,585.15c14.25-1.79,14.13-17.41,14.82-18.58.33-.56,1.8-.84,3.45-.24-.21,6.82-3.14,16.09-10.37,19.86-12.05,6.28-26.87.65-32.65-11.36-5.91-12.27-5.39-26.47,1.51-37.91,6.65-11.03,20.7-15.66,31.21-7.83,8.72,6.5,11.5,17.38,11.75,28.4l-36.68.17c.39,15.04,2.77,29.26,16.95,27.48ZM944.88,553.87c.05-11.15-2.36-24.62-11.27-25.12-10.28-.58-12.88,12.64-13.49,25.17l24.75-.05Z"/>
    <path class="cls-1" d="M982.87,574.92c1.77,8.08,7.88,11.61,15.86,10.07,12.51-2.42,13.62-18.03,14.08-18.41.56-.47,1.69-.78,3.52-.25-.61,6.85-3.73,15.61-10.74,19.53-12.43,6.95-26.79.66-32.77-11.96-5.31-11.2-4.91-24.86.98-35.68,5.35-9.82,14.95-14.27,25.85-12.57,5.32.83,9.73,3.52,12.53,7.6,2.96,4.31,4.26,10.35,1.42,15.09-1.77,2.95-5.52,3.9-8.28,2.64s-4.27-3.64-4.08-6.92c.17-2.9,4.25-4.34,6.54-6.02.65-5.81-6.79-9.77-12.47-9.43-5.87.35-10.19,2.7-11.86,8.58-3.42,12.05-3.36,25.05-.59,37.73Z"/>
  </g>
  <g>
    <path class="cls-1" d="M108.78,570.25c-3.24.13-3.75,4.09-2.91,7.19,3.77,13.85,5.05,27.96.85,41.72-4.49,14.67-19.58,24.06-34.46,19.74-8.13-2.36-12.99-14.21-30.84-18.05-12.32-2.65-19.9-12.9-18.3-26.04,1.66-13.64,11.14-26.65,24.31-31.37l24.02-8.61c3.83-1.37,7.4-2.65,9.65-6.07-3.82-2.08-6.95-1.54-10.17-.23-11.88,4.82-24.15,8.27-37.04,8.57-16.03.37-29.75-8.91-33.31-24.23-1.74-7.51.43-14.91,5.95-20.17,6.76-6.44,9.72-14.47,11.51-23.44,2.11-10.53,8.99-18.24,19.84-20.12,13.27-2.3,27.58,2.51,36.23,12.98,8.27,10.02,10.1,26.99,20.85,37.35,2.94-9.11-4.46-22.48-7.63-36.11-3.91-16.78,5.47-34.15,21.06-41.11,20.71-9.25,28.32,13.95,47.41,14,14.2.03,25.44,11.61,23.3,26.21-2.28,15.58-12.84,27.81-26.87,34.4-6.97,3.27-13.12,6.57-20.47,8.94-2.98.96-6.7,3.44-7.49,6.18.85,1.78,4.19,1.64,5.79,1l27.94-11.13c13.66-5.44,29.93-2.26,41.23,6.78,11.03,8.81,11.88,23.48,2.54,33.51-11.98,12.86.03,23.25-13.4,35.46-12.19,11.08-30.17,10.6-42.83-.37-8.62-7.46-14.81-16.9-20.42-26.91-1.29-2.31-2.77-4.25-5.61-5.13-1.02,3.86-.48,6.74.62,9.8,7.57,21.23,22.42,41.35,42.42,51.96-5.96,3.72-11.57,5.33-17.7,6.96-9.16-7.14-15.45-16.43-20.75-26.76-5.88-11.71-10.33-23.33-15.32-36.89Z"/>
    <path class="cls-1" d="M724.91,570.81c3.04,4.29,5.69,8.41,9.7,11.01,9.98,6.45,16.67-7.89,16.78-7.98.42-.3,1.46-.31,2.9,1-2.74,4.42-5.43,9.57-10.43,12.53-5.68,3.36-13.26,2.95-18.2-1.1l-8.87-7.27c-15.79,15.37-45.11,13.35-50.29-2.73-5.29-16.42,6.65-26.9,21.26-37.9-4.53-6.97-8.64-14.37-8.1-22.75s5.09-16.58,13.27-20.05c4.17-1.77,10.67-1.89,14.82.29,7.58,3.99,9.65,12.98,7.14,21-2.35,7.48-8.36,12.66-15.32,18.08l22.48,32.29c6.5-8.5,13.63-21.85,9.83-26.57-3.39-4.22-11.94,2.42-9.48-6.54l32.31-.07.09,5.41c-7.23-1.86-12.3,1.05-15.25,6.97-4.21,8.43-8.39,16.2-14.63,24.37ZM696.65,530.76c6.78-3.96,12.76-10.61,13.92-19.03.93-6.73-3.23-12.72-9.56-13.22-5.61-.45-10.55,3.82-11.96,9.9-1.86,8.02,1.47,15.4,7.59,22.35ZM697.22,584.86c6.43-1.48,11.94-4.55,16.61-9.37l-23.14-33.17c-10.1,7.09-14.39,18.77-11.81,30.68,1.83,8.45,9.65,13.87,18.34,11.86Z"/>
    <path class="cls-1" d="M300.08,585.76c-12.56,7.12-27.03,3.48-37.61-5.11-1.56-1.26-4.56-3.87-6.43-2.45-2.65,2.02-2.18,6.75-2.13,9.84-1.08.31-2.12.45-3.6.39l-.93-41.04c-.02-.96,1.71-1.07,2.31-.8,2.59,1.16.98,19.5,19.02,33.56,8.32,6.48,20.55,6.83,28.5.04,4.67-3.98,6.15-9.86,5.49-15.65-.62-5.44-4.97-9.71-10.78-12.15l-29.07-12.18c-16.01-6.71-20.79-28.41-9.43-41.83,5.87-6.94,16.85-8.89,25.07-7.13,12.71,2.72,21.26,16.53,22.24,5.22l.26-3.06c.05-.56.94-.77,3.13-.66l1.67,34.76c-1.59.19-2.63.1-3.75-.15-2.85-15.84-15.03-32.82-30.85-32.06-8.45.41-13.99,6.46-15.34,14.29s2.34,14.49,9.82,17.53l30.77,12.52c9,3.66,14.1,12.71,14.51,21.48.45,9.58-3.71,19.46-12.89,24.66Z"/>
    <path class="cls-1" d="M455.2,581.88c.04,3.7,9.94-.99,7.99,5.13l-26.72.06.47-3.64c1.43.44,6.7.74,7.59-1.13l.09-51.22c-2.02-1.55-4.99-1.36-7.57-.74-.67-1.31-.62-2.5-.14-3.95l18.15-.08c-.06,3.16-.92,6.49.78,10.55,6.07-9.35,14.59-13.86,24.64-10.41,5.98,2.06,9.6,8.09,9.7,14.58l.62,41.09c.03,1.8,5.72,2.08,7.21,1.15,1.24,1.35.97,2.43.68,4.02l-26.33-.02c-.24-1.36-.31-2.4.22-3.84,1.78.54,6.56.63,7.8-1.16l-.11-45.61c0-3.05-2.36-6.13-4.18-7.02-8.95-4.41-21.34,8.82-21.19,23.19l.31,29.07Z"/>
    <path class="cls-1" d="M419.64,576.73c-4.88,7.48-11.63,11.37-18.87,11.85-8.37.55-15.31-2.4-20.83-9.16-9.29-11.4-10.28-28.18-2.91-40.93,4.68-8.1,12.19-12.94,20.79-13.21,9.06-.29,17.11,4.08,22.22,12.34,7.2,11.65,7.28,27.34-.41,39.12ZM410.9,538.34c-1.88-6.08-6.41-9.85-12.13-9.57-5.12.25-10.07,3.04-11.84,8.79-5.67,18.43-4.06,48.87,12.79,47.67,15.24-1.09,16.32-30.21,11.17-46.89Z"/>
    <path class="cls-1" d="M545.77,581.85c8.35-6.62,4.52-18.05,10.42-15.64-.26,8.04-4.03,17.47-12.45,21.02-4.92,2.07-12.09,1.86-17.08-.07-11.85-4.6-17.21-16.61-17.42-28.86-.2-11.7,3.63-22.98,13.55-29.7,7.27-4.92,17.77-4.26,24.43,1.27,7.66,7.68,10.57,18.05,10.26,27.94l-36.17-.25c-.33,7.48.02,15.58,4.13,22.31,4.21,6.9,14.2,6.84,20.32,1.99ZM545.89,553.84c-.37-12.78-2.8-25.1-12.38-25.1-9.2,0-12.24,13.42-12.52,25.21l24.9-.11Z"/>
    <path class="cls-1" d="M599.86,588.56c-15.33.75-17.59-8.76-22.65-6.46-2.85,1.3-1.63,6.77-5.66,6.98l-.15-26.71c.67-.22,2.35-.23,2.97-.1,4.94,14.01,14.37,26.48,28.11,22.25,4.13-1.27,6.45-4.89,6.82-8.43.41-3.87-1.31-7.81-5.35-9.54l-22.7-9.73c-5.78-2.48-9.85-7.31-10.54-12.66-.8-6.17.62-12.31,6.19-15.78,14.81-9.24,27.39,4.42,29.49,3.03,1.61-1.07.75-5.05,1.59-5.06l2.23-.04.34,19.36c.02,1.24-1.15,1.45-2.05,1.25-2.25-.49-4.71-19.68-22.02-18.14-4.83.43-8.5,3.06-9.25,7.26-.8,4.44,1.87,8.07,6.23,9.99l23.21,10.2c6.44,2.83,8.85,8.34,9.07,14.99.31,9.47-5.5,16.83-15.89,17.34Z"/>
    <path class="cls-1" d="M355.8,579.93c4.89-6.69,1.54-14.62,5.85-13.03.17,4.67-.18,9.96-2.35,14.61-2.95,6.33-10.2,8.25-16.64,6.45-6.53-1.82-9.65-8.38-9.62-15.58l.13-41.25-9.8-.12-.06-4.58c2.92.43,6.94.51,9.3-2.06,5.52-5.98,7.02-14.39,6.18-22.48.85-.82,2.83-.75,4.22-.26l-.09,24.63,16.27.03c.3,1.14.34,2.63.2,4.52l-16.54.2.04,43.82c0,3.17,1.68,6.27,3.85,7.19,3.01,1.28,6.99.72,9.05-2.1Z"/>
  </g>
</svg>