<?xml version="1.0" encoding="UTF-8"?>
<svg id="Capa_1" data-name="Capa 1" xmlns="http://www.w3.org/2000/svg" viewBox="0 0 1080 1080">
  <defs>
    <style>
      .cls-1 {
        fill: #fff;
      }
    </style>
  </defs>
  <g id="gWhkiD">
    <polygon class="cls-1" points="0 421.4 0 404.08 206.91 404.06 207.04 421.77 113.61 421.8 113.64 623.54 93.44 623.39 93.45 421.78 0 421.4"/>
    <polygon class="cls-1" points="1037.82 370.77 1080 420.71 1080 429.83 1070.47 437.33 1028.17 388.32 913.15 388.28 913.62 370.77 1037.82 370.77"/>
    <polygon class="cls-1" points="1022.6 520.23 898.7 520.23 898.67 605.98 1033.47 605.98 1033.46 623.58 878.81 623.57 878.81 404.1 1029.56 404.04 1029.66 421.7 898.72 421.69 898.69 502.54 1022.53 502.48 1022.6 520.23"/>
    <path class="cls-1" d="M830.49,466.76c.78,40.64-31.31,66.6-69.9,66.73l-71.27.26v89.75s-19.66.05-19.66.05l-.05-219.44,87.58-.07c10.5,0,20.3,1.16,29.94,4.25,26.25,8.22,42.83,31.11,43.36,58.47ZM809.68,474.38c1.39-14.17-1.94-27.19-11.02-37.5-9.42-9.42-22.01-14.92-35.8-14.95l-73.54-.19v94.01s68.96-.05,68.96-.05c26.25-.19,48.75-14.32,51.4-41.32Z"/>
    <path class="cls-1" d="M587.72,404.51l19.69-.46.02,140.62c0,35.89-18.11,66.56-52.73,77.1-23.61,7.19-48.99,7-72.73.07-34.5-10.08-53.7-40.63-53.72-76.09l-.08-141.61,19.81.11.02,138.34c0,29.51,13.81,55.39,42.96,63,17.66,4.61,36.3,4.69,53.99.17,28.54-7.3,42.32-31.99,42.8-61.06l-.04-140.17Z"/>
    <polygon class="cls-1" points="346.94 539.18 243.36 539.07 208.33 623.57 187.08 623.35 230.95 520.81 359.36 520.8 403.63 623.33 382.37 623.54 346.94 539.18"/>
    <path class="cls-1" d="M351.63,497.85l-113.13.08,56.35-126.28,56.78,126.2ZM324.34,479.47l-29.37-64.03-29.09,64.16,58.46-.13Z"/>
    <path class="cls-1" d="M682.19,693.77c-7.17,1.95-14.68,1.57-21.84.69v-45.03c6.38-.76,12.83-1.24,18.88-.51,11.87,1.43,18.52,10.99,18.25,22.48-.24,9.94-4.63,19.48-15.29,22.37ZM685.75,685.56c7.09-7.1,7.28-20.47.57-27.41-5.21-5.39-13.16-5.3-19.92-3.87l.09,35.54c7.02.72,14.06.94,19.26-4.26Z"/>
    <path class="cls-1" d="M1034.08,692.33c-.38.31-5.15,3.6-11.49,3.13-8.66-.65-14.43-8.39-14.1-17.82.19-5.57,2.47-10.59,6.59-13.67,3.52-2.64,7.23-3.01,8.18-3.08,1.17-.09,5.12-.25,8.91,2.01,8.28,4.95,7.55,16.62,7.5,17.27-.17,2.24-.63,8.15-5.58,12.16ZM1032.6,671.44c-1.7-3.84-5.35-5.99-9.01-5.67-3.04.26-6.3,2.68-7.62,5.87-2.16,5.21-1.82,10.36,1.25,15.19,1.6,2.51,5.42,4.17,8.45,3.94,6.34-.48,10.76-10.68,6.93-19.34Z"/>
    <path class="cls-1" d="M780.38,706.17l1.36-5.06c5.09,2.83,11.45,4.59,16.51.53,2.7-2.16,3.4-7.68,3.14-11.4-3.7,3.51-7.33,5.11-12.84,4.24-3.74-.59-8.22-4.07-9.83-8.7-3.93-11.32,1.44-23.35,10.91-24.71,4.89-.7,8.69.91,11.53,4.17.43-1.19.85-3.17,1.52-3.23l4.79-.4-.09,31.77c-.01,3.62-1.45,8.82-4.05,11.2-6.62,6.08-15.49,5.75-22.96,1.6ZM800.52,671.36c-.85-2.81-4.56-5.43-6.86-5.55-3.11-.17-6.5,1.54-8.05,4.3-2.87,5.12-2.88,11.01.28,15.96,1.77,2.78,5.54,4.06,8.77,3.65,6.03-.77,8.46-9.73,5.86-18.35Z"/>
    <path class="cls-1" d="M980.29,690.15c-2.53,3.55-6.48,5.64-11.43,5.31-4.16-.28-8.72-3.03-10.9-7.55-5.52-11.42.33-25.53,9.87-26.82,5.08-.69,8.28.59,12.13,4.17l.11-18.83,5.88.05.12,43.92.18,3.6c.05.91-2.96.81-3.91.66-.9-.14-1.22-1.35-2.05-4.49ZM979.67,672.56c-.66-3.8-4.57-6.6-7.81-6.72-3.11-.12-6.9,1.91-8.25,5.16-1.89,4.55-1.89,9.93-.02,14.38,1.56,3.7,5.64,5.5,9.23,5.01,6.36-.88,8.41-8.83,6.84-17.82Z"/>
    <path class="cls-1" d="M467.39,694.28l-7.29.15-14.24-22.05c-1.13.91-4.26,3.86-4.28,5.55l-.21,16.61-6.22-.1v-45.36s6.17-.04,6.17-.04l.39,21.04,16.45-20.86,7.9-.13-15.82,19.02,17.15,26.16Z"/>
    <path class="cls-1" d="M560.69,694.54l-.17-20.49c-.03-4.02-2.81-7.52-6.39-7.97-3.04-.38-8.59,2.42-8.67,6.53l-.41,21.89h-5.95s-.05-48.06-.05-48.06l6.07-.03.12,19.91c3.36-4.52,7.63-6.16,12.9-5.02,4.11.9,8.46,5.8,8.52,11.01l.26,22.15-6.25.07Z"/>
    <path class="cls-1" d="M884.31,694.47c-6.58,1.92-12.91.84-18.77-1.71l1.21-5.5c4.51,1.66,7.67,2.97,11.64,3.1,4.16.13,7.56-2.81,8.17-6.19s-1.23-6.97-4.66-8.69l-11.37-5.73c-3.55-1.79-4.82-7.39-4.19-11.16.56-3.35,3.52-7.5,7.27-9.02,5.78-2.35,11.95-1.61,17.46.58l-1.05,5.23c-8.39-3.32-16.19-2.62-17.42,3.25-.53,2.55,1.05,6.5,3.46,7.61l8.89,4.05c5.04,2.29,8.31,6.93,8.12,12.14-.18,5.03-2.86,10.34-8.78,12.07Z"/>
    <path class="cls-1" d="M584.36,688.95c7.01,4.02,15.07-.55,15.24.26l.82,4.06c-5.08,2.3-12.03,3.17-17.75.82-6.99-2.88-9.5-10.2-8.95-17.54.39-5.17,3.01-10.41,6.64-13,4.21-3,10.48-3.57,14.9-1.09,5.96,3.35,7.56,9.65,6.87,16.97l-22.62.12c.4,4.13,2.16,7.87,4.85,9.41ZM596.23,675.04c.35-5.96-3.06-9.57-8.19-9.38-4.23.16-7.98,3.65-8.18,9.28l16.37.1Z"/>
    <path class="cls-1" d="M723.59,690.21l4.6-.89c1.04-.2.52,4.22-.53,4.62-4.04,1.55-12.49,2.3-16.97,0-7.15-3.69-9.03-10.88-8.24-18.42.58-5.5,3.66-10.55,7.85-12.8,4.92-2.64,11.17-2.58,15.5,1.08,4.52,3.82,5.33,10.07,4.87,15.63l-22.5.07c.32,4.03,1.69,7.21,4.17,9.06,2.9,2.17,7.4,2.4,11.25,1.66ZM724.81,675.04c.27-6-3.01-9.62-8.1-9.4-4.23.18-8.02,3.69-8.21,9.32l16.32.08Z"/>
    <path class="cls-1" d="M615.59,672.57l-.46,21.9-6.17.08-.1-32.61,4.17-.07c.91-.01,1.59,2,2.25,3.39,3.66-3.36,8.01-5.21,13.32-3.83,3.53.91,7.71,5.69,7.8,10.52l.39,22.59-6.05-.04-.32-20.86c-.06-3.91-3.32-7.24-6.68-7.56-2.71-.26-8.06,2.51-8.14,6.49Z"/>
    <path class="cls-1" d="M822.65,672.94l-.39,21.61-5.75-.18-.46-31.33c-.37-.92,1.95-1.74,3.34-1.66,1.43.08,2.31,2.51,2.61,4.95,3.23-4.25,8-6.33,13.48-5.01,4.14.99,8.15,5.76,8.18,11.07l.14,22.12-6.01.04-.16-21.19c-.03-3.86-3.66-7.23-7.07-7.36-2.84-.11-7.85,2.81-7.92,6.94Z"/>
    <path class="cls-1" d="M943.13,661.89l5.77-.06.15,32.58h-4.42c-.92,0-.87-3.08-1.03-4.47-3.37,4.23-8.04,6.43-13.51,5.23-5.01-1.1-8.36-6.3-8.39-12.17l-.11-21.21,6.11-.03.15,21.26c.03,4.2,3.32,7.37,7.16,7.41,2.68.03,7.59-3.06,7.67-6.74l.47-21.81Z"/>
    <path class="cls-1" d="M752.58,693.61c-5,2.85-11.78,2.22-16.44-.23,0-1.12.66-3.91,1.14-5.16,4.1,2.91,9.66,3.75,12.98.45,1.11-1.1.77-5.32-.48-5.97l-5.28-2.73c-3.86-2-7.79-4.33-8.17-8.2-.42-4.32,2.28-8.97,6.9-10.2,4.22-1.13,8.75-.31,12.83,1.26l-1.81,4.96c-3.66-2.43-8.67-2.82-11.23-.21-.9.92-.88,4.92.24,5.46l4.72,2.29c3.48,1.69,7.47,3.75,8.54,6.71,1.48,4.11.28,9.14-3.96,11.57Z"/>
    <path class="cls-1" d="M494.73,685.67c0,1.05.84,3.27,1.46,3.85.78.72,3.89.73,5.01.6,1.18-.14,2.31,2.9,1.76,3.79s-2.54,1.39-4.03,1.55c-5.57.6-10.07-2.85-10.13-8.56l-.19-20.45c-2.29-.29-4.2-.5-5.12-.95s.23-4.05,1.26-3.92c1.16.15,3.68.39,3.72-.33l.22-3.62c.05-.86-.4-3.81.4-4.04l5.34-1.54.29,9.56h8.42s.04,4.68.04,4.68l-8.62-.03.16,19.42Z"/>
    <path class="cls-1" d="M513.29,677.12c-.27,5.13,1.75,9.49,4.84,11.45,3.82,2.43,8.18,2.4,12.97.41.41-.26,1.67,2.83,1.38,3.82-.77,2.67-13.04,4.78-19.78-.88-4.33-3.64-5.93-9.19-5.51-15.41.75-11.16,10.99-17.67,21.99-15.11,1.03.24,2.89,1.3,3.25,2.18.44,1.05-1.43,3.83-2.62,3.38-3.08-1.17-8.02-1.39-11.05.23-2.88,1.54-5.22,5.2-5.47,9.93Z"/>
    <path class="cls-1" d="M907.42,685.48c0,1.07.72,3.23,1.26,3.89.67.83,3.37.92,5.11.73,1.04-.11,2.17,2.91,1.67,3.86-.49.93-2.64,1.37-4.14,1.51-5.61.53-9.96-3.07-10.01-8.76l-.2-20.23-4.21-.44c-.99-.1-1.21-3.5-.25-3.71l3.48-.77c2.41-.53-.21-7.13,2.1-8.17,1.16-.52,4.45-.94,5.03-.78l.27,8.88,8.19.1.02,4.74-8.38-.07.06,19.21Z"/>
    <rect class="cls-1" x="471.74" y="661.65" width="6.13" height="32.92"/>
    <rect class="cls-1" x="995.45" y="661.63" width="6.08" height="33.07"/>
    <rect class="cls-1" x="764.05" y="661.65" width="6.3" height="32.92" transform="translate(-1.07 1.21)"/>
    <circle class="cls-1" cx="474.97" cy="652.42" r="3.9"/>
    <circle class="cls-1" cx="998.38" cy="652.43" r="3.92"/>
    <circle class="cls-1" cx="767.29" cy="652.43" r="3.9"/>
  </g>
</svg>