<?xml version="1.0" encoding="UTF-8"?>
<svg id="Capa_1" data-name="Capa 1" xmlns="http://www.w3.org/2000/svg" viewBox="0 0 1080 1080">
  <defs>
    <style>
      .cls-1 {
        fill: #fff;
      }
    </style>
  </defs>
  <g id="XFFLWW">
    <g>
      <path class="cls-1" d="M859.78,472.9c50.48,11.31,68.46,56.1,54.51,103.13-6.85,20.79-21.95,35.57-42.37,43.33-16.09,5.49-32.53,9.27-50.19,9.28l-136.8.09.04-297.28,137.16.02c14.26,0,27.91,3.92,40.72,8.36,28.98,11.36,44.09,37.63,43.61,68.19-.47,29.93-16.3,54.85-46.68,64.89ZM871.85,410.22c.06-15.69-4.48-29.67-16.61-38.87-11.35-7.27-24.31-10.17-38.17-11.06l-98.51-.12.04,101.09,95.21.05c32.61-1.43,57.91-16.77,58.04-51.1ZM879.73,520.79c-4.95-12.87-15.81-20.91-28.28-25.77-10.27-2.93-20.28-4.58-31.22-5.31l-101.67.08.04,109.84h96.89c12.93-.5,24.98-2.22,36.96-6.06,29.84-10.78,38.01-44.83,27.27-72.78Z"/>
      <g>
        <path class="cls-1" d="M997.41,751.5c0,2.88-8.01.24-9.68-2.15l-43.98-62.73-.37,65.77-6.38.05-.12-75.95,7.89.28,46.02,65.67.49-65.91h6.37s-.24,74.95-.24,74.95Z"/>
        <path class="cls-1" d="M695.46,743.63c-14.83,16.1-42.17,13.97-54.7-2.76-11.39-15.21-11.15-37.52.16-52.65,12.59-16.85,39.55-18.68,54.13-3.32,14.75,15.54,15.5,42.34.41,58.73ZM695.73,732.71c6.16-13.02,5.36-28.35-2.1-40.04-5.66-8.87-15.71-12.74-25.47-12.32-9.43.4-19.09,5.08-24.14,14.25-6.96,12.63-6.78,28.36.49,40.76,5.7,9.73,15.83,13.96,26.34,13.56,10-.38,19.76-5.35,24.89-16.2Z"/>
        <path class="cls-1" d="M460.69,750.77c-10.85,5.09-23.36,4.86-33.63-.02-8.88-4.23-13.56-12.11-13.75-22.13l6.83.04c.02,10.91,7.06,18.16,17.25,19.7,6.43.97,13.73.59,19.62-2.06s9.24-8.94,8.78-14.91c-.44-5.72-5.5-10.85-11.71-12.44l-22.61-5.8c-8.06-2.07-14.18-7.1-15.24-14.19-1.25-8.35,1.57-16.39,9.67-20.55,7.18-3.69,16.23-4.34,24.36-3.16,11.45,1.67,19.33,10.31,19.75,21.91l-5.84.46c-.97-6.94-4.52-12.92-11.35-15.44-8.48-3.12-18.11-2.9-25.78,2.5-3.5,2.46-5.37,8.65-4.63,12.8s5.6,8.29,10.4,9.57l23.56,6.3c8.88,2.37,15.01,8.21,15.81,16.63.79,8.34-2.51,16.58-11.5,20.79Z"/>
        <path class="cls-1" d="M827.37,725.5c2.98,14.13,14.18,22.92,27.73,23.4,14.1.5,25.08-8.97,26.95-23.3h6.63c-1.44,17.75-16.13,29.22-33.7,28.96-22.09-.32-35.98-18.47-35.42-40.24.32-12.36,4.16-24.02,13.02-31.44,9.43-7.9,22.1-10.08,34.15-6.86,11.17,2.99,19.92,11.67,20.74,22.82-4.8.69-6.78-1.96-8.33-5.36-4.86-10.69-16.39-14.1-26.9-12.88-20.14,2.35-29.62,22.41-24.87,44.9Z"/>
        <path class="cls-1" d="M264.86,730.13c4.54,12.27,14.5,18.3,25.61,18.81,11.83.55,22.74-5.64,26.65-17.97l1.42-4.47c.41-1.3,3.54-1.19,6.64-1.13-1.85,16.78-14.86,29.04-32.5,29.15-16.99.1-31.45-10.05-35.46-26.89-2-8.4-1.94-17.97.21-26.36,4.69-18.38,21.49-28.48,40.03-26.4,13.68,1.53,24.63,10.47,26.3,24.07-5.57.42-6.58-2.09-8.3-5.69-5.13-10.73-16.52-13.88-27.19-12.71-10.88,1.2-20.22,8.48-23.94,19.91-3,9.21-3.01,20.07.54,29.67Z"/>
        <path class="cls-1" d="M1064.14,729.32l-36.35-.13-8.92,23.01-6.98.11,30-75.38c2.39-.22,6.38-.17,8.3.15l29.82,75.16-6.83.74-9.03-23.66ZM1062.01,723.68l-16.19-40.47-16.02,40.63,32.2-.15Z"/>
        <path class="cls-1" d="M387.47,729.31l-36.19-.18-8.85,22.54c-1.16.72-5.14.83-7.04.43l29.54-74.27c.8-2.01,7.58-1.79,8.84-.2l29.74,74.71-6.62.44-9.42-23.47ZM385.11,723.31l-15.75-40.93-15.9,41.46,31.65-.53Z"/>
        <path class="cls-1" d="M534.86,729.3l-36.5-.15-8.89,22.97-6.93.23,29.65-74.68c1.94-1.19,6.29-1.35,8.68-.25l29.77,74.85-6.79.59-8.99-23.57ZM532.6,723.73l-16.19-40.38-15.85,40.41,32.03-.03Z"/>
        <polygon class="cls-1" points="769.2 710.87 769.91 716.22 730.88 716.15 730.9 752.52 724.57 752.25 724.5 676.31 774.61 676.32 774.59 681.93 730.95 681.93 730.96 710.68 769.2 710.87"/>
        <polygon class="cls-1" points="592.25 751.47 587.19 751.66 587.02 727.44 564.17 727.31 562.77 722.13 586.99 722.01 587.17 697.12 592.2 697.13 592.47 722.03 616.51 722.12 616.53 727.15 592.52 727.22 592.25 751.47"/>
        <rect class="cls-1" x="908.02" y="676.27" width="6.64" height="76.62"/>
        <rect class="cls-1" x="793.24" y="676.33" width="6.74" height="76.67"/>
      </g>
      <g>
        <polygon class="cls-1" points="273.17 628.61 272.67 390.95 169.01 628.61 137.45 628.76 33.81 390.73 32.89 628.73 0 628.49 .06 331.18 42.86 331.73 153.42 585.86 263.85 331.43 306.03 331.14 306.01 628.5 273.17 628.61"/>
        <path class="cls-1" d="M557.77,621.68c-42.56,19.23-91.63,17.58-132.28-3.69-70.66-36.97-87.47-132.98-60.58-205.49,18.74-50.52,63.88-82.93,117.3-86.68,68.69-4.82,124.97,28.65,145.95,94.35,23.31,73,4.58,167.63-70.39,201.5ZM545.83,592.45c59.14-29.38,69.17-115.84,45.32-174.74-19.11-47.21-65.07-67.94-115.26-60.36-33.39,5.04-60.74,25.44-74.79,56.72-25.9,57.66-16.55,143.04,37.6,174.96,32.28,19.03,72.9,20.43,107.13,3.43Z"/>
      </g>
    </g>
  </g>
</svg>