<?xml version="1.0" encoding="UTF-8"?>
<svg id="Capa_1" data-name="Capa 1" xmlns="http://www.w3.org/2000/svg" viewBox="0 0 1080 1080">
  <defs>
    <style>
      .cls-1 {
        fill: #fff;
      }
    </style>
  </defs>
  <path class="cls-1" d="M922.24,558.89c-6.22,16.33-19.93,26.33-37.03,28.8l-41.13.4v-96s36.75.2,36.75.2c16.06.09,30.19,8.57,38.15,22.27,7.51,13.67,8.65,29.32,3.26,44.33ZM911.23,563.51c9.37-15.42,8.9-34.1-1.09-48.7-6.99-9.35-17.46-15.23-29.32-15.31l-29.11-.18v81.37s29.85-.25,29.85-.25c12.24-.87,22.71-6.68,29.66-16.94Z"/>
  <path class="cls-1" d="M1080,540.11c0,27.38-22.26,49.57-49.72,49.57s-49.72-22.19-49.72-49.57,22.26-49.57,49.72-49.57,49.72,22.19,49.72,49.57ZM1065.47,563.29c7.79-13.9,7.93-30.23,1.25-44.23-5.65-11.85-16.62-19.11-29.51-20.82-18.97-2.52-36.93,4.88-44.29,22.7-4.95,12-4.9,25.4-.09,37.39,6.19,15.44,20.44,24.27,36.91,24.33,14.67.05,28.23-6,35.72-19.37Z"/>
  <path class="cls-1" d="M617.9,585.31c-21.2,8.78-51.58,4.61-62.48-16.62l6.77-3.4c10.04,17.68,35.52,21.56,53.59,13,5.16-2.44,8.31-7.22,9.25-11.64,1.22-5.74.03-11.36-4.36-15.15-5.73-4.95-13.24-6.4-20.54-8.07l-23.84-5.46c-5.82-1.33-11.87-4.65-14.97-9.96-7.28-12.44-1.25-27.25,11.74-32.87,10.03-4.34,20.52-4.99,31.54-3.82s20.18,6.99,25.71,16.05l-6.48,3.34c-8.62-14.77-32.46-15.54-47.19-9.06-7.98,3.51-12.55,11.64-9.89,19.86,6.54,20.27,65.99,5.79,66.34,40.61.1,10.16-4.96,18.95-15.17,23.18Z"/>
  <path class="cls-1" d="M463.18,589.86c0,2.19-1.6,3.14-3.08,3.16-1.4.01-3.07-.96-3.08-2.83l-.1-25.84-31.18-17.91-.06-39.6,34.2-19.86,34.5,19.63.35,39.55-31.47,18.24-.09,25.47ZM480.73,512.46c1.84-1.01,3.34,1.64,3.23,2.64-.15,1.26-.71,1.97-2.12,2.76l-18.47,10.27.16,11.42,17.12-9.47c1.53-.85,3.2-.15,3.8,1.34.34.85.49,2.38-.87,3.15l-20.33,11.52.25,13.16,26.7-15.41-.16-34.67-30.14-17.18-29.85,17.28-.02,34.72,26.68,15.23.09-13.65-19.85-11.29c-1.22-.69-.73-2.73-.19-3.44.73-.97,2.23-1.52,3.61-.76l16.41,9.1.02-11.05-18.95-10.56c-1.77-.99-1.95-2.84-1.09-4.06,1.05-1.5,2.62-1.3,4.14-.46l19.3,10.69,20.52-11.28Z"/>
  <path class="cls-1" d="M811.9,492.37l7.59-.24-.45,63.91c-.14,19.67-17.17,33.19-36.28,33.33-20.43.15-36.92-14.61-36.96-35.23l-.13-61.96h7.33s.37,62.66.37,62.66c.09,15.81,13.04,27.19,28.53,27.49,15.86.3,29.61-11.2,29.69-27.42l.32-62.53Z"/>
  <path class="cls-1" d="M688.8,587.85c-2.47.46-5.11.17-7.63,0v-88.63s-34.96-.12-34.96-.12c.42-2.74.22-4.58,0-6.8h77.43s0,6.87,0,6.87l-34.86.03.02,88.65Z"/>
  <rect class="cls-1" x="904.86" y="536.43" width="95.97" height="7.35" transform="translate(412.6803 1492.9075) rotate(-89.9962)"/>
  <g>
    <path class="cls-1" d="M352.24,585.57c-21.32,8.35-50.81,4.33-61.93-16.89l6.81-3.38c9.96,17.39,34.87,21.53,52.99,13.28,9.54-4.35,13.33-15.83,7.75-24.51-11.07-17.24-65.66-6.07-64.69-37.71.67-21.95,26.01-27.41,46.96-24.94,10.71,1.26,19.58,6.99,25.1,15.94l-6.29,3.5c-8.9-14.95-32.92-15.87-47.98-8.88-8.07,3.75-12.31,12.51-8.86,20.61,7.61,17.85,60.12,6.55,65.45,34.87,2.27,12.05-3.21,23.38-15.31,28.12Z"/>
    <polygon class="cls-1" points="76.09 587.76 68.43 587.96 68.43 544.47 7.48 544.46 7.48 587.92 0 587.89 0 492.18 7.46 492.13 7.5 537.68 68.36 537.68 68.46 492.18 76.09 492.18 76.09 587.76"/>
    <path class="cls-1" d="M168.33,564.56l-57.02-.11-10.4,23.43-8.32.08,42.98-95.67,8.45-.18,43.15,96.03-8.38-.18-10.47-23.41ZM165.29,557.51l-25.47-57.48-25.64,57.55,51.11-.07Z"/>
    <path class="cls-1" d="M263.74,492.29l7.35-.1-.13,61.93c-.04,20.64-16.53,35.34-36.9,35.27-19.09-.06-35.37-13.55-36.34-33.24l-.48-63.98,7.51-.02.08,60.1c.02,18.27,14.15,31.75,32.59,29.89,14.27-1.44,25.9-12.48,25.99-27.32l.35-62.54Z"/>
  </g>
</svg>