<?xml version="1.0" encoding="UTF-8"?>
<svg id="Capa_1" data-name="Capa 1" xmlns="http://www.w3.org/2000/svg" viewBox="0 0 1080 1080">
  <defs>
    <style>
      .cls-1 {
        fill: #fff;
      }
    </style>
  </defs>
  <g>
    <path class="cls-1" d="M403.06,606.16c-25.21,4.55-50.89-2.87-69.91-19.68l17.26-20.58c11.87,9.97,25.23,16.45,40.5,15.97,6.9-.22,15.01-2.58,16.88-8.79,1.14-3.78.78-7.62-1.66-10.4-2.24-2.56-5.2-4.23-8.39-5.19l-20.07-6c-13-3.89-27.57-7.7-34.84-20.18-3.3-5.66-4.18-11.82-4.35-18.35-.68-25.89,21.37-40.93,46.24-40.45,17.72-.06,34.61,5.38,48.6,16.69l-15.08,21.89c-7.9-5.39-15.97-9.82-25.18-11.95-10.76-2.62-25.25-.64-25.79,10.14-.25,4.96,2.29,8.67,6.88,10.83l13.25,4.72,16.86,4.66c6.92,1.91,13.22,4.84,19.11,8.87,7.61,5.21,12.42,12.91,13.46,22.12,1.74,15.37-2.74,29.74-15.76,38.42-5.43,3.62-11.17,6.03-18.02,7.27Z"/>
    <g>
      <path class="cls-1" d="M255.8,576.21l-55.32-.05-11.97,29.4h-29.66s56.24-132.11,56.24-132.11h26.79s56.26,132.15,56.26,132.15l-30.42-.02-11.91-29.36ZM245.35,550.53l-17.25-41.96-17.32,42.07,34.57-.12Z"/>
      <path class="cls-1" d="M70.17,581.14c14.1-.56,22.69-6.6,32.85-15.39l18.29,18.6c-9.58,10.52-21.05,18.52-35.24,21.58-10.37,2.24-20.72,2.66-31.19.86-40.83-7.03-63.46-48.02-51.83-87.31,7.2-24.34,27.4-42.04,52.44-46.23,11.7-1.96,23.38-1.41,34.91,1.49,11.63,2.93,21.5,9.26,30.01,17.66l-18.45,21.27c-3.97-3.3-7.76-6.57-12.39-9.08-19.38-11.12-43.32-5.84-53.92,13.97-7.14,13.35-7.01,29.44.04,42.82,6.8,12.9,19.95,20.33,34.49,19.76Z"/>
    </g>
  </g>
  <g>
    <polygon class="cls-1" points="764.73 605.58 655.39 605.6 655.37 583.6 727.32 499.9 657.67 499.82 657.66 474.42 764.72 474.41 764.73 496.47 692.83 580.13 764.73 580.18 764.73 605.58"/>
    <polygon class="cls-1" points="582.99 607.54 543.28 510.33 503.68 607.5 474.07 607.37 530.24 475.37 557.06 475.28 613.31 607.43 582.99 607.54"/>
    <g>
      <path class="cls-1" d="M901.31,474.46l29.09-.06-.04,76.25c-.32,8.97-1.45,17.23-4.66,25.52-5.25,13.58-15.85,23.76-29.94,28.14-14.64,4.55-30.53,4.6-45.22.23-14.54-4.33-25.44-14.96-30.51-29.05-2.6-7.23-3.69-14.21-4.09-22.04l-.02-79.03h28.94s.01,76.03.01,76.03c.42,13.05,5.49,25.25,18.23,29.07,6.54,1.96,13.36,1.95,19.9.07,12.48-3.58,17.78-14.85,18.3-27.64v-77.47Z"/>
      <polygon class="cls-1" points="1079.99 579.29 1080 605.6 985.6 605.58 985.59 474.42 1014.54 474.42 1014.52 579.3 1079.99 579.29"/>
    </g>
    <rect class="cls-1" x="534.07" y="571.16" width="19.18" height="36.31"/>
  </g>
</svg>