<?xml version="1.0" encoding="UTF-8"?>
<svg id="Capa_1" data-name="Capa 1" xmlns="http://www.w3.org/2000/svg" viewBox="0 0 1080 1080">
  <defs>
    <style>
      .cls-1 {
        fill: #fff;
      }
    </style>
  </defs>
  <path class="cls-1" d="M1070.01,540c0,292.72-237.29,530.01-530.01,530.01S9.99,832.72,9.99,540C9.99,247.28,247.28,9.99,540,9.99s530.01,237.29,530.01,530.01ZM1063.94,540c0-289.36-234.57-523.93-523.93-523.93S16.08,250.64,16.08,540s234.57,523.93,523.93,523.93,523.93-234.57,523.93-523.93Z"/>
  <path class="cls-1" d="M606.56,498.6c35.5-6.24,70.87-2.65,103.72,10.5,49.76,19.91,87.12,61.78,89.68,116.59,2.16,46.3-18.47,87.88-54.82,115.86-29.34,22.59-63.66,36.91-100.46,42.03-44.29,6.16-87.88-7.46-121.41-37.01-18.53,18.56-41.19,30.77-66.92,36.67-54.45,12.47-111.77-6.99-147.47-49.42-40.84-50.39-38.97-122.34,5.27-169.85,12.21-13.12,26.59-23.58,42.93-31.86-19.73-14.8-34.39-32.73-42.11-55.21-16.01-46.63,1.95-97.8,43.16-124.68,28.54-18.61,63.98-23.88,96.14-12.76,63.84,22.08,92.32,96.18,60.2,155.49-5.81,11.19-13.91,20.49-24,29.41,10,6.85,18.69,13.38,28.71,22.19,14.79-69.19,27.55-138.39,38.11-209,32.94,6.24,65.49,8.61,99.1,8.68,39.58.09,77.68-2.88,116.66-10.33-8.7,29.58-20.5,58.59-45.93,75.44-35.63,23.6-86.82,23.23-128.04,13.58l-45.85-10.73-28.89,134.51c21.38-26.68,48.4-44.14,82.22-50.09ZM438.09,495.22l47.09,25.92c16.79-13,28.4-31.34,33.7-52.34,12.37-49.06-11.14-100.29-57.82-120.83-42.33-18.63-97.19-6.04-120.59,33.93-14.91,25.47-.53,47.68,20.81,64.91,12.01,9.7,24.22,18.32,37.66,26l39.15,22.4ZM671.91,756.25c12.36-13.88,20.4-28.83,25.4-46.6,10.63-37.8,12.26-77.78,4.57-116.42-3.03-15.2-7.58-29.65-16.04-42.38-12.95-19.48-33.19-31.8-55.28-38.54-43.16-12.2-76.89,8-103.54,42.24,18.05,20.12,29.34,43.46,34.78,69.61,8.98,43.2-3.7,87.04-34.93,118.66,23.72,20.59,53.26,33.99,85.1,36.36,23,1.71,43.95-6.35,59.95-22.94ZM521.97,738.41c23.65-31.45,27.02-63.8,3.49-95.22-12.7-15.81-27.86-28.24-45.1-39.07-39.57-24.85-80.29-41.8-118.63-68.64-10.47,5.71-19.93,11.14-28.91,18.27-31.03,24.64-48.13,61.69-47.31,100.68.82,38.94,19.33,74.28,51.08,97.98,54.54,40.62,133.06,39.67,182.15-10.06-25.98-24.93-40.83-58.11-41.61-93.27h4.13c.82,0,1.17,2.67,1.23,3.72,1.85,32.43,16.04,62.08,39.48,85.62Z"/>
  <path class="cls-1" d="M130.31,411.69c-55.1,165.81-4.68,346.62,127.57,460.43-.73,2.15-2.66,3.63-4.78,4.1-118.19-101.8-172.99-259.28-142.85-412.73,13.16-68.87,43.93-134.06,88.17-188.79,2.1.15,4.05,1.66,5,3.66-31.98,39.81-56.89,84.5-73.12,133.33Z"/>
  <path class="cls-1" d="M832.13,871.76c-1.67,1.49-3.45,2.74-4.52,2.72-1.28-.02-3.19-2.07-3.83-3.73,58.02-50.53,101.84-116.02,125.96-188.76,45.41-136.93,19.4-286.87-70.07-399.7l5.01-3.64c74.2,93.76,106.39,214.66,88.23,333.23-7.06,46.05-20.78,90.29-42.08,131.75-24.93,48.54-57.96,91.64-98.71,128.13Z"/>
  <path class="cls-1" d="M425.8,163.07c.29,7.41-4.61,12.78-9.31,15.26-11.72,6.18-23.46-4.36-22.63-5.46l2.44-3.25c1.42-1.9,11.05,10.64,20.23,1.21,1.79-1.84,3.12-6.01,2.6-8.6-2.38-11.73-26.33-8.2-31.84-19.62-2.01-4.18-2.22-9.59.38-13.44,5.82-8.62,17.57-9.3,25.4-2.45l-3.75,5.07c-5.49-4.96-12.43-4.86-16.41.55-1.19,1.62-1.01,6.12.07,7.7s4.03,3.47,6.13,4.15l16.51,5.27c5.61,1.79,9.94,7.49,10.18,13.62Z"/>
  <path class="cls-1" d="M739.42,204.42c-1.71-.08-3.62-.96-5.83-2.38l24.34-44.35-11.37-6.47,2.5-5.18,28.46,15.76-2.84,5.13-11.43-6.22-23.83,43.71Z"/>
  <path class="cls-1" d="M495.08,158.23l-6.08-50.18-12.5,1.62c-.61-.84-1.12-4.36-.95-5.84l31.71-4.03,1.01,5.52-13.2,2.01,6.07,49.81-6.06,1.09Z"/>
  <rect class="cls-1" x="327.58" y="157.36" width="6.51" height="56.45" transform="translate(-48.46 191.02) rotate(-30.11)"/>
  <rect class="cls-1" x="648.08" y="144.32" width="56.52" height="6.43" transform="translate(326.06 744.61) rotate(-71.91)"/>
  <path class="cls-1" d="M628.05,976.86l-12.48-16.44.43,18.5-2.3.5-1.17-27.24,14.68,19.38,6.75-22.68,7.77,22.32c.21.6.34,2.15.34,2.52,0,.55-1.73.27-2.31.06l-5.58-17.13-6.13,20.19Z"/>
  <path class="cls-1" d="M305.59,892.37l-17.36,9.74,2.11-20.13-10.51,10.88-1.69,1.45c-.4.34-1.71-1.3-1.71-1.46l17.62-19.27-2.92,23.83,20.17-10.49-11.36,23.27-1.84-1.13,7.5-16.69Z"/>
  <path class="cls-1" d="M748.08,934.1l-9.28,5.4-11.65-23.53,7.45-3.86c1.42-.74,5.3-.01,6.47,1.07,1.34,1.24,1.83,5.1,1.98,7.45,2.08,1.03,5.59,2.67,6.7,4.46,1.41,2.25.46,7.77-1.66,9.01ZM740.33,916.88c-1.3-3.62-9.05-1.5-9.1-.03-.04.97.68,3.17,1.28,4.07l2.08,3.1c.25.38,7.34-2.69,5.74-7.15ZM740.1,936.13l6.56-4.33c1.16-.77,1.39-4.38.7-5.6s-3.83-2.66-5.16-2.17l-6.7,2.49,4.61,9.6Z"/>
  <path class="cls-1" d="M374.97,947.62c-5.57,1.08-10.95-2.51-15.87-4.67l9.61-23.77c5.02,1.48,9.62,3.63,14.05,7.36,4.52,7.1,2.2,19.14-7.79,21.08ZM374.69,944.89c7.34-1.57,9.91-11.16,5.82-16.3-2.44-3.08-6.4-4.58-10.26-5.94l-7.75,18.78c3.26,1.91,7.93,4.37,12.19,3.45Z"/>
  <path class="cls-1" d="M452.7,974.2c-2.88-.23-3.91-3.14-5.12-5.68l-4.98-10.45-3.72,12.51-2.19-.16,5.72-25.52,9.36,2.11c3.82.86,5.8,5.37,4.99,8.51-1.11,4.3-5.22,6.12-9.86,4.83l5.8,13.86ZM450.1,958.14c1.79.34,4.41-3.05,4.29-4.73-.1-1.4-2.2-3.74-3.62-4.12l-6.1-1.63-2.19,9.04,7.62,1.44Z"/>
  <path class="cls-1" d="M337.43,922.77l-9.65-5.51-7.68,5.33-2.1-1.81,23.13-17.16-2.07,30.32c-3.52-3.23-1.94-6.55-1.64-11.18ZM337.74,919.9l.32-10.62-8.39,6.45,8.08,4.17Z"/>
  <path class="cls-1" d="M492.34,972.15l-10.87-1.81-3.85,6.16c-.77,1.23-2.48,2.06-4.31,1.44l15.85-24.84,8.76,28.13-2.51.36-3.07-9.43ZM491.73,969.33l-3.39-10.27-5.68,9.46,9.07.82Z"/>
  <polygon class="cls-1" points="418.8 951.9 406.87 948.4 403.78 957.71 415.65 962.14 414.75 964.23 400.47 959.46 408.6 934.6 422.6 939.19 422.18 941.46 410.32 938.01 407.63 945.74 418.58 949.31 418.8 951.9"/>
  <path class="cls-1" d="M702.37,941.71l3.78,9.3,11.57-4.54.83,2.22-14.03,5.83-9.47-24.3,14.06-5.63.68,2.19-11.46,4.94,3.08,7.58,10.97-4.15c.51-.19.63,2.43.05,2.66l-10.06,3.9Z"/>
  <path class="cls-1" d="M796.29,889.6l5.7,8.21,10.43-7.63,1.3,2.14-12.24,9.09-15.21-20.99,11.68-8.75,1.94,1.72-10.02,7.48,4.85,6.67c4.04-2.81,6.61-5.35,11.32-6.79-3.02,4.05-4.97,5.16-9.73,8.84Z"/>
  <path class="cls-1" d="M658.05,945.46c-.22-.71.07-2.56.2-3.1s1.98.82,2.17,1.48l4.59,15.42c.96,3.23,4.34,4.76,6.93,4.44,3.18-.39,6.08-3.88,5.06-7.42l-5.14-17.87,2.22-.64,5.09,16.13c1.65,5.24-.19,9.93-4.48,11.6-5.4,2.09-10.52-.09-12.27-5.78l-4.38-14.26Z"/>
  <path class="cls-1" d="M554.44,983.7l-.98-12.86-8.16-12.42,2.08-.87,8.02,11.11c3.12-4.85,3.42-9.64,9.15-11.44l-8.02,14.58-.23,12.19-1.87-.31Z"/>
  <path class="cls-1" d="M781.6,911.95c.28-.17,2.3,1.42,2.02,1.59l-1.46.92-9.48,5.94-13.75-22.3,2.26-1.18,12.5,19.72,7.91-4.68Z"/>
  <path class="cls-1" d="M600.14,158.81l-14.85-24.74c-1.28-2.13-4.03-3.8-6.18-2.97l-2.68,25.12-6.05-.93,6.03-55.71,21.46,2.55c9.2,1.09,14.3,9.39,12.81,17.4-1.69,9.14-9.19,13.69-20.07,12.36l17,27.46-7.48-.54ZM595.41,126.12c6.02.45,9.39-4.86,9.32-9.48-.06-3.95-3.14-8.39-7.96-9l-14.83-1.85-2.06,19.16,15.53,1.16Z"/>
  <path class="cls-1" d="M865.5,240.31c0,16.55-13.42,29.97-29.97,29.97s-29.97-13.42-29.97-29.97,13.42-29.97,29.97-29.97,29.97,13.42,29.97,29.97ZM859.35,240.3c0-13.17-10.67-23.84-23.84-23.84s-23.84,10.67-23.84,23.84,10.67,23.84,23.84,23.84,23.84-10.67,23.84-23.84Z"/>
  <path class="cls-1" d="M258.03,277.04l-37.52-42.37,17.06-14.74c12.06-10.42,28.46-7.59,38.4,4.41,9.66,11.66,9.45,27.12-1.78,37.61l-16.15,15.1ZM258.73,268.7l12.26-12.08c7.36-8.08,7.55-18.71,1.07-27.25-7.57-9.98-20.96-13.05-30.85-4.7l-12.4,10.46,29.93,33.56Z"/>
</svg>